<svg width="98" height="52" viewBox="0 0 98 52" fill="none" xmlns="http://www.w3.org/2000/svg">
<g filter="url(#filter0_di_126_136)">
<path d="M47.2568 4.27523H46.6281C46.2165 4.27523 45.8058 4.31589 45.4022 4.39662L45.321 4.41286C45.0006 4.47693 44.6868 4.57023 44.3834 4.69157V4.69157C43.91 4.88093 43.4661 5.13699 43.0652 5.45199L42.5779 5.83486L41.9361 6.22983C41.6888 6.382 41.4263 6.50795 41.1529 6.6056L40.9044 6.69434C40.6186 6.79644 40.3173 6.84862 40.0137 6.84862V6.84862C39.4504 6.84862 38.9018 6.66903 38.4476 6.33593L37.977 5.99083L37.0412 5.36697L36.3394 4.97706L35.2477 4.27523L33.688 3.33945L31.9724 2.40367L30.4128 1.77982L29.259 1.42865C28.8333 1.29908 28.3972 1.2062 27.9557 1.151L26.7477 1H24.7981L22.8486 1.23394L21.211 1.54587L20.5028 1.70683C19.8341 1.8588 19.1884 2.0983 18.5823 2.41915L18.1697 2.63761L17.7306 2.83519C16.9882 3.1693 16.3026 3.61763 15.6988 4.16388L15.4777 4.36395C15.1415 4.66814 14.8325 5.00107 14.5541 5.35896L14.4304 5.51801C14.0651 5.98764 13.7548 6.49753 13.5055 7.03773L12.9449 8.25229L12.2148 10.1384C12.0779 10.4922 11.9669 10.8554 11.8829 11.2253L11.6192 12.3853L11.1621 15.3892C11.103 15.7775 11.0734 16.1697 11.0734 16.5624V17.844M33.6101 33.5183L34.7798 32.9725L36.0275 32.3486L37.1972 31.6468L38.055 31.1009L38.9128 30.4771L39.5367 30.0092L39.8486 29.7752V29.7752C40.2077 29.5187 40.6208 29.3476 41.0562 29.275L41.0838 29.2704C41.2478 29.2431 41.4138 29.2294 41.58 29.2294H41.6736C41.86 29.2294 42.0459 29.2498 42.2279 29.2902V29.2902C42.5112 29.3532 42.7817 29.4639 43.0278 29.6177L43.2798 29.7752L43.5639 29.9173C43.8939 30.0823 44.2353 30.2237 44.5854 30.3404L45.4633 30.633L46.555 31.1009L47.6468 31.4908L48.2453 31.7402C48.4698 31.8338 48.701 31.9104 48.9369 31.9693V31.9693C49.3231 32.0659 49.7196 32.1147 50.1176 32.1147H50.6101L51.1844 32.0788C51.6322 32.0508 52.0761 31.9785 52.5096 31.8629V31.8629C52.8543 31.7709 53.1912 31.652 53.5172 31.5071L53.5866 31.4763C54.1476 31.2269 54.6771 30.9118 55.1637 30.5374L55.4449 30.3211L56.5367 29.3853L56.8284 29.0936C57.0495 28.8724 57.2547 28.6359 57.4423 28.3858V28.3858C57.7215 28.0134 57.9607 27.6126 58.1557 27.19L58.3302 26.8119L58.3373 26.7978C58.5918 26.2889 58.7898 25.7536 58.9278 25.2016L58.9541 25.0963L59.188 24.1606L59.422 22.445L59.5 21.8211V21.4158C59.5 21.2199 59.5373 21.0258 59.6101 20.8439L59.6235 20.8105C59.6451 20.7565 59.671 20.7043 59.7009 20.6544V20.6544C59.8235 20.4501 60.0097 20.2915 60.2309 20.203L60.2798 20.1835L60.3741 20.1599C60.7258 20.072 61.087 20.0275 61.4495 20.0275V20.0275H62.4633H65.3479" stroke="#BC6C25" stroke-width="1.40367" stroke-linecap="round" stroke-linejoin="round"/>
</g>
<g filter="url(#filter1_d_126_136)">
<line x1="75.4863" y1="16.9862" x2="46.4772" y2="16.9862" stroke="#DDA15E" stroke-width="0.155963"/>
</g>
<g filter="url(#filter2_d_126_136)">
<line x1="79.2292" y1="16.0504" x2="49.1283" y2="16.0504" stroke="#DDA15E" stroke-width="0.155963"/>
</g>
<g filter="url(#filter3_d_126_136)">
<line x1="83.2844" y1="15.1147" x2="51.6239" y2="15.1147" stroke="#DDA15E" stroke-width="0.155963"/>
</g>
<g filter="url(#filter4_d_126_136)">
<line x1="87.9634" y1="14.1789" x2="53.9634" y2="14.1789" stroke="#DDA15E" stroke-width="0.155963"/>
</g>
<g filter="url(#filter5_d_126_136)">
<line x1="92.7981" y1="13.2431" x2="56.3027" y2="13.2431" stroke="#DDA15E" stroke-width="0.155963"/>
</g>
<g filter="url(#filter6_d_126_136)">
<line x1="97.009" y1="12.3074" x2="59.7338" y2="12.3074" stroke="#DDA15E" stroke-width="0.155963"/>
</g>
<g filter="url(#filter7_di_126_136)">
<path d="M41.5592 19.8333C39.7273 21.6676 36.9577 21.8717 35.373 20.2892C33.7884 18.7066 33.5412 15.4151 35.3731 13.5808" stroke="#BC6C25" stroke-width="0.779817" stroke-linecap="round"/>
</g>
<g filter="url(#filter8_di_126_136)">
<path d="M11.0376 32.864H10.8692C10.8692 32.3213 11.1312 30.8848 11.6553 28.5547C12.1793 26.2246 12.4413 24.9379 12.4413 24.6946C12.4413 24.3016 12.2963 23.9273 12.0062 23.5717L11.8658 23.3892L11.9079 23.1085C12.46 22.9213 13.4707 22.8278 14.9398 22.8278C15.0896 23.1646 15.1691 23.5624 15.1785 24.0209C16.2733 23.2161 17.2091 22.8137 17.9858 22.8137C18.8748 22.8137 19.4035 23.1974 19.572 23.9647C20.6294 23.1974 21.5511 22.8137 22.3372 22.8137C22.8706 22.8137 23.3057 22.9635 23.6426 23.2629C23.9795 23.553 24.1479 23.9788 24.1479 24.5402C24.1479 25.0924 23.9421 26.1498 23.5303 27.7125C23.1279 29.2659 22.9267 30.3702 22.9267 31.0252C22.9267 31.2685 22.9782 31.3902 23.0811 31.3902C23.2776 31.3902 23.5163 31.334 23.797 31.2217L24.0918 32.0218C23.2215 32.6394 22.3606 32.9482 21.509 32.9482C21.1066 32.9482 20.7838 32.8266 20.5405 32.5833C20.2972 32.34 20.1755 31.9844 20.1755 31.5165C20.1755 31.0392 20.3674 30.0099 20.751 28.4284C21.1441 26.8376 21.3406 25.8691 21.3406 25.5228C21.3406 25.1766 21.2985 24.9473 21.2143 24.835C21.13 24.7134 20.9663 24.6525 20.723 24.6525C20.4797 24.6525 20.096 24.8303 19.572 25.1859C19.5065 25.6164 19.3614 26.3135 19.1368 27.2774C18.5473 29.7385 18.2525 31.4837 18.2525 32.5131C17.794 32.7564 17.0032 32.878 15.8803 32.878H15.5013C15.5013 32.0171 15.7212 30.6696 16.161 28.8355C16.6009 27.0013 16.8208 25.9018 16.8208 25.5368C16.8208 25.1719 16.7787 24.9333 16.6944 24.821C16.6196 24.7087 16.4558 24.6525 16.2032 24.6525C15.9598 24.6525 15.5715 24.835 15.0381 25.2C14.9539 25.6679 14.7808 26.4446 14.5187 27.5301C13.9105 30.066 13.6064 31.7224 13.6064 32.4991C13.1946 32.7424 12.3384 32.864 11.0376 32.864ZM29.6232 35.2643C29.2208 35.5357 28.8606 35.7135 28.5424 35.7977C28.2336 35.8819 27.8873 35.924 27.5037 35.924C27.1294 35.924 26.7831 35.7977 26.465 35.545C26.1562 35.2924 26.0018 34.9835 26.0018 34.6186C26.0018 34.2536 26.0907 33.9402 26.2684 33.6781C26.4556 33.4255 26.7223 33.2102 27.0685 33.0324C27.6768 32.7143 28.4441 32.4569 29.3706 32.2604C29.4361 32.1107 29.5437 31.7691 29.6934 31.2357C29.3191 31.4323 28.8465 31.6147 28.2757 31.7832C27.7142 31.9516 27.2136 32.0358 26.7738 32.0358C26.334 32.0358 25.9596 31.8908 25.6508 31.6007C25.3514 31.3013 25.2017 30.8942 25.2017 30.3795C25.2017 29.8555 25.3701 28.9103 25.707 27.5441C26.0532 26.1685 26.2263 25.1859 26.2263 24.5964C26.2263 24.4186 26.1796 24.2314 26.086 24.0349C25.9924 23.8291 25.8988 23.6653 25.8052 23.5436L25.6789 23.3752L25.721 23.0945C26.3012 22.9073 27.3025 22.8137 28.7249 22.8137C28.9027 23.1225 28.9916 23.539 28.9916 24.063C28.9916 24.5777 28.8138 25.5696 28.4582 27.0388C28.1026 28.508 27.9248 29.3782 27.9248 29.6496C27.9248 30.1175 28.0885 30.3514 28.4161 30.3514C28.8652 30.3514 29.4033 30.183 30.0303 29.8461C30.3391 28.536 30.6011 27.2493 30.8163 25.986C31.0316 24.7227 31.1392 23.8057 31.1392 23.2348C31.4386 23.1132 31.841 23.0149 32.3463 22.9401C32.8517 22.8652 33.2681 22.8278 33.5956 22.8278H33.9044C33.9044 23.5483 33.7126 24.8163 33.3289 26.6317C33.1885 27.2587 32.9827 28.1898 32.7113 29.425C32.4493 30.6509 32.1451 31.6522 31.7989 32.4289C31.462 33.1962 31.1158 33.7904 30.7602 34.2115C30.414 34.642 30.035 34.9929 29.6232 35.2643ZM27.0405 34.3659C27.0405 34.5718 27.1762 34.6747 27.4475 34.6747C27.7189 34.6747 28.0184 34.5157 28.3459 34.1975C28.6734 33.8887 28.9073 33.5705 29.0477 33.243C28.505 33.3272 28.0324 33.4723 27.63 33.6781C27.237 33.8934 27.0405 34.1226 27.0405 34.3659Z" fill="#FEFAE0"/>
</g>
<g filter="url(#filter9_di_126_136)">
<path d="M3.2144 49.8047C2.68101 49.8047 2.23183 49.6878 1.86688 49.4538C1.51128 49.2292 1.33349 48.8924 1.33349 48.4432C1.33349 48.1812 1.39431 47.9519 1.51596 47.7554C1.63761 47.5589 1.76395 47.4091 1.89495 47.3062C2.02596 47.2033 2.14294 47.1144 2.24587 47.0395C2.35817 46.9647 2.50321 46.8898 2.68101 46.8149C2.85881 46.7401 3.00385 46.6839 3.11615 46.6465C3.22844 46.5997 3.37817 46.5482 3.56532 46.4921C3.76183 46.4359 3.9022 46.3985 3.98642 46.3798C4.07064 46.3517 4.20165 46.319 4.37945 46.2815C4.55725 46.2441 4.6555 46.2207 4.67422 46.2113C4.72101 46.071 4.7678 45.9072 4.81459 45.7201C4.42156 45.8417 4.05193 45.9025 3.70569 45.9025C2.87284 45.9025 2.15697 45.5937 1.55807 44.9761C0.968532 44.3491 0.673761 43.4555 0.673761 42.2951C0.673761 41.35 0.874954 40.4563 1.27734 39.6141C1.67972 38.7625 2.26927 38.0654 3.04596 37.5226C3.83202 36.9705 4.68826 36.6945 5.61468 36.6945C6.5411 36.6945 7.30376 36.9097 7.90266 37.3402C8.51092 37.7613 8.81505 38.2993 8.81505 38.9544C8.81505 39.2538 8.7355 39.5767 8.57642 39.9229C8.44541 39.9416 8.27697 39.951 8.0711 39.951C7.19147 39.951 6.51771 39.7779 6.04982 39.4316V37.9016C5.90009 37.78 5.70826 37.7191 5.47431 37.7191C4.91284 37.7191 4.43092 38.1356 4.02853 38.9684C3.62615 39.8013 3.42495 40.8119 3.42495 42.0003C3.42495 43.638 3.85073 44.4568 4.70229 44.4568C5.1889 44.4568 5.65211 44.2041 6.09193 43.6988C6.53174 43.1935 6.86862 42.5571 7.10257 41.7898L8.02899 41.9302C7.76697 44.5316 7.21486 46.4921 6.37266 47.8115C5.53982 49.1403 4.48706 49.8047 3.2144 49.8047ZM2.49853 48.2186C2.49853 48.3122 2.53596 48.3917 2.61083 48.4572C2.68569 48.5321 2.7933 48.5695 2.93367 48.5695C3.46706 48.5695 3.93963 48.1437 4.35138 47.2922L4.36541 47.2501C3.7478 47.3436 3.27991 47.4747 2.96174 47.6431C2.65294 47.8209 2.49853 48.0127 2.49853 48.2186ZM12.8625 44.9761C13.2462 44.9761 13.7328 44.8077 14.3224 44.4708C14.3411 44.3398 14.5563 43.3806 14.9681 41.5933C15.3798 39.7966 15.5857 38.5192 15.5857 37.7613C15.5857 37.4805 15.581 37.2887 15.5716 37.1858C16.5074 36.8582 17.4011 36.6945 18.2526 36.6945C18.3088 36.76 18.3369 36.9191 18.3369 37.1717C18.3369 37.7332 18.1029 39.0433 17.635 41.102C17.1765 43.1607 16.9472 44.3725 16.9472 44.7375C16.9472 45.0931 17.0127 45.2709 17.1437 45.2709C17.228 45.2709 17.4806 45.2101 17.9017 45.0884L18.1965 45.8745C17.3169 46.5108 16.47 46.829 15.6559 46.829C15.2722 46.829 14.9587 46.7213 14.7154 46.5061C14.4721 46.2909 14.3224 46.0008 14.2662 45.6358C13.1152 46.4313 12.128 46.829 11.3045 46.829C10.7711 46.829 10.3313 46.6839 9.98503 46.3938C9.64815 46.0944 9.47971 45.692 9.47971 45.1867C9.47971 44.672 9.6809 43.6192 10.0833 42.0284C10.4857 40.4376 10.6869 39.2304 10.6869 38.4069C10.6869 38.2479 10.6354 38.0747 10.5325 37.8876C10.4389 37.7004 10.3453 37.5507 10.2517 37.4384L10.0973 37.27L10.1394 36.9892C10.729 36.7927 11.7443 36.6945 13.1854 36.6945C13.3632 36.9378 13.4521 37.3495 13.4521 37.9297C13.4521 38.5099 13.2509 39.6281 12.8485 41.2845C12.4461 42.9408 12.2449 43.9374 12.2449 44.2743C12.2449 44.7422 12.4508 44.9761 12.8625 44.9761ZM21.9033 44.8779C21.9033 45.1399 21.9641 45.2709 22.0858 45.2709C22.2916 45.2709 22.5443 45.2101 22.8437 45.0884L23.1525 45.8745C22.2916 46.5108 21.4588 46.829 20.654 46.829C20.1861 46.829 19.8118 46.698 19.5311 46.4359C19.2597 46.1646 19.124 45.7856 19.124 45.299C19.124 44.8124 19.3626 43.7128 19.8399 42.0003C20.3171 40.2785 20.5791 39.0807 20.6259 38.4069C20.6259 38.2479 20.5745 38.0747 20.4715 37.8876C20.3686 37.7004 20.2703 37.5507 20.1768 37.4384L20.0224 37.27L20.0504 36.9892C20.64 36.7927 21.6834 36.6945 23.1806 36.6945C23.3303 36.9752 23.4052 37.2747 23.4052 37.5928C23.4052 38.1356 23.1525 39.3193 22.6472 41.1441C22.1513 42.9689 21.9033 44.2135 21.9033 44.8779ZM25.4311 46.7588H25.1083C25.1083 45.9821 25.3282 44.5644 25.768 42.5057C26.2078 40.4469 26.4511 39.2164 26.4979 38.814C26.554 38.4023 26.5868 38.0935 26.5961 37.8876C25.7165 37.9063 25.0147 38.042 24.4906 38.2947C24.2193 37.9858 24.0508 37.532 23.9853 36.9331C24.4438 36.774 25.2299 36.6945 26.3435 36.6945L30.765 36.8348C30.9803 36.8348 31.3218 36.8255 31.7897 36.8068C31.8271 37.1062 31.8459 37.3589 31.8459 37.5647C31.8459 38.0046 31.5698 38.2245 31.0177 38.2245C30.8493 38.2245 30.5826 38.1964 30.2176 38.1402C29.862 38.0841 29.5485 38.0513 29.2771 38.042C29.2491 38.3414 29.0058 39.558 28.5472 41.6915C28.0981 43.8251 27.8735 45.3925 27.8735 46.3938C27.4617 46.6371 26.6476 46.7588 25.4311 46.7588ZM32.2992 46.478C32.2337 46.6839 32.0138 46.7869 31.6395 46.7869C31.2745 46.7869 30.9096 46.6605 30.5446 46.4079C30.8347 45.6218 31.4102 44.3164 32.2711 42.4916C33.1414 40.6575 33.7216 39.2913 34.0117 38.3929C34.0398 38.2806 34.0538 38.187 34.0538 38.1122C34.0538 38.028 34.021 37.9157 33.9555 37.7753C33.89 37.6349 33.8198 37.5226 33.745 37.4384L33.6467 37.3121L33.7029 37.0313C34.5357 36.8068 35.523 36.6945 36.6646 36.6945L37.7454 36.7506C37.839 36.8348 37.9326 37.0547 38.0262 37.4103C38.1198 37.7659 38.1806 38.2993 38.2087 39.0105C38.2367 39.7217 38.2554 41.0552 38.2648 43.011C38.2742 44.5176 38.4613 45.2709 38.8263 45.2709C38.9199 45.2709 39.121 45.2241 39.4299 45.1305L39.5702 45.0884L39.865 45.8885C39.4813 46.1786 39.0321 46.4079 38.5175 46.5763C38.0028 46.7447 37.5396 46.829 37.1278 46.829C36.5289 46.829 36.1172 46.6465 35.8926 46.2815C35.6774 45.9072 35.5698 45.43 35.5698 44.8498C35.5698 44.2602 35.5744 43.8532 35.5838 43.6286C35.406 43.5912 35.0598 43.5724 34.5451 43.5724C34.0304 43.5724 33.5859 43.6239 33.2116 43.7269C32.8654 44.6533 32.5612 45.5703 32.2992 46.478ZM35.6399 42.4495C35.6867 41.6354 35.7101 40.8166 35.7101 39.9931C35.7101 39.1696 35.6633 38.5707 35.5698 38.1964C35.4762 38.1964 35.4107 38.2058 35.3732 38.2245C35.1674 38.8514 34.6153 40.2598 33.7169 42.4495H35.6399ZM42.8734 46.3938C42.3213 46.6371 41.6476 46.7588 40.8522 46.7588C40.5808 46.7588 40.3375 46.7354 40.1223 46.6886C40.1223 46.071 40.3843 44.6813 40.9083 42.5197C41.4417 40.3487 41.7084 38.9824 41.7084 38.421C41.7084 38.1964 41.54 37.8969 41.2031 37.5226L41.0487 37.3402L41.0908 37.0313C42.3634 36.8068 43.7765 36.6945 45.3299 36.6945C46.2656 36.6945 47.0049 36.8769 47.5477 37.2419C48.0904 37.5975 48.3618 38.1215 48.3618 38.814C48.3618 39.4971 48.1746 40.1241 47.8003 40.6949C47.426 41.2564 46.8926 41.6962 46.2001 42.0144C46.509 43.0624 46.8037 43.8813 47.0845 44.4708C47.3652 45.0603 47.5945 45.3551 47.7723 45.3551C47.922 45.3551 48.1559 45.299 48.4741 45.1867L48.6425 45.1305L48.9794 45.8885C48.1559 46.5155 47.2856 46.829 46.3686 46.829C45.4609 46.829 44.8667 46.3704 44.5859 45.4534C44.3426 44.6486 44.1461 43.652 43.9964 42.4635H43.5051C43.084 44.4287 42.8734 45.7388 42.8734 46.3938ZM44.0806 41.2424C44.3801 41.2424 44.6374 41.1488 44.8526 40.9616C45.0772 40.7745 45.2456 40.5312 45.3579 40.2317C45.5638 39.6422 45.6667 39.0713 45.6667 38.5192C45.6667 37.9671 45.4188 37.6911 44.9228 37.6911C44.7731 37.6911 44.6234 37.7051 44.4736 37.7332C44.4643 38.0233 44.235 39.1836 43.7858 41.2143C43.8513 41.233 43.9496 41.2424 44.0806 41.2424ZM55.0539 46.7447H54.8855C54.8855 46.202 55.1475 44.7656 55.6715 42.4355C56.1956 40.1054 56.4576 38.8187 56.4576 38.5754C56.4576 38.1824 56.3125 37.808 56.0224 37.4524L55.8821 37.27L55.9242 36.9892C56.4763 36.8021 57.4869 36.7085 58.9561 36.7085C59.1058 37.0454 59.1854 37.4431 59.1947 37.9016C60.2896 37.0969 61.2254 36.6945 62.0021 36.6945C62.8911 36.6945 63.4198 37.0781 63.5882 37.8455C64.6456 37.0781 65.5674 36.6945 66.3534 36.6945C66.8868 36.6945 67.322 36.8442 67.6589 37.1436C67.9957 37.4337 68.1642 37.8595 68.1642 38.421C68.1642 38.9731 67.9583 40.0305 67.5466 41.5933C67.1442 43.1467 66.943 44.2509 66.943 44.9059C66.943 45.1492 66.9945 45.2709 67.0974 45.2709C67.2939 45.2709 67.5325 45.2147 67.8133 45.1024L68.108 45.9025C67.2378 46.5202 66.3768 46.829 65.5253 46.829C65.1229 46.829 64.8 46.7073 64.5567 46.464C64.3134 46.2207 64.1918 45.8651 64.1918 45.3972C64.1918 44.92 64.3836 43.8906 64.7673 42.3091C65.1603 40.7183 65.3568 39.7498 65.3568 39.4035C65.3568 39.0573 65.3147 38.828 65.2305 38.7158C65.1463 38.5941 64.9825 38.5333 64.7392 38.5333C64.4959 38.5333 64.1122 38.7111 63.5882 39.0667C63.5227 39.4971 63.3777 40.1943 63.1531 41.1581C62.5635 43.6192 62.2688 45.3645 62.2688 46.3938C61.8102 46.6371 61.0195 46.7588 59.8966 46.7588H59.5176C59.5176 45.8979 59.7375 44.5503 60.1773 42.7162C60.6171 40.8821 60.837 39.7825 60.837 39.4176C60.837 39.0526 60.7949 38.814 60.7107 38.7017C60.6358 38.5894 60.4721 38.5333 60.2194 38.5333C59.9761 38.5333 59.5878 38.7158 59.0544 39.0807C58.9701 39.5486 58.797 40.3253 58.535 41.4108C57.9267 43.9468 57.6226 45.6031 57.6226 46.3798C57.2109 46.6231 56.3546 46.7447 55.0539 46.7447ZM69.639 46.478C69.5735 46.6839 69.3536 46.7869 68.9793 46.7869C68.6143 46.7869 68.2494 46.6605 67.8844 46.4079C68.1745 45.6218 68.75 44.3164 69.6109 42.4916C70.4812 40.6575 71.0614 39.2913 71.3515 38.3929C71.3796 38.2806 71.3936 38.187 71.3936 38.1122C71.3936 38.028 71.3608 37.9157 71.2953 37.7753C71.2298 37.6349 71.1597 37.5226 71.0848 37.4384L70.9865 37.3121L71.0427 37.0313C71.8755 36.8068 72.8628 36.6945 74.0044 36.6945L75.0853 36.7506C75.1788 36.8348 75.2724 37.0547 75.366 37.4103C75.4596 37.7659 75.5204 38.2993 75.5485 39.0105C75.5765 39.7217 75.5953 41.0552 75.6046 43.011C75.614 44.5176 75.8011 45.2709 76.1661 45.2709C76.2597 45.2709 76.4608 45.2241 76.7697 45.1305L76.91 45.0884L77.2048 45.8885C76.8211 46.1786 76.3719 46.4079 75.8573 46.5763C75.3426 46.7447 74.8794 46.829 74.4676 46.829C73.8687 46.829 73.457 46.6465 73.2324 46.2815C73.0172 45.9072 72.9096 45.43 72.9096 44.8498C72.9096 44.2602 72.9142 43.8532 72.9236 43.6286C72.7458 43.5912 72.3996 43.5724 71.8849 43.5724C71.3702 43.5724 70.9257 43.6239 70.5514 43.7269C70.2052 44.6533 69.901 45.5703 69.639 46.478ZM72.9797 42.4495C73.0265 41.6354 73.0499 40.8166 73.0499 39.9931C73.0499 39.1696 73.0031 38.5707 72.9096 38.1964C72.816 38.1964 72.7505 38.2058 72.713 38.2245C72.5072 38.8514 71.9551 40.2598 71.0567 42.4495H72.9797ZM78.7815 46.7588H78.4587C78.4587 45.9821 78.6786 44.5644 79.1184 42.5057C79.5582 40.4469 79.8015 39.2164 79.8483 38.814C79.9044 38.4023 79.9372 38.0935 79.9466 37.8876C79.0669 37.9063 78.3651 38.042 77.8411 38.2947C77.5697 37.9858 77.4012 37.532 77.3357 36.9331C77.7943 36.774 78.5803 36.6945 79.6939 36.6945L84.1155 36.8348C84.3307 36.8348 84.6722 36.8255 85.1401 36.8068C85.1776 37.1062 85.1963 37.3589 85.1963 37.5647C85.1963 38.0046 84.9202 38.2245 84.3681 38.2245C84.1997 38.2245 83.933 38.1964 83.568 38.1402C83.2124 38.0841 82.8989 38.0513 82.6276 38.042C82.5995 38.3414 82.3562 39.558 81.8977 41.6915C81.4485 43.8251 81.2239 45.3925 81.2239 46.3938C80.8122 46.6371 79.998 46.7588 78.7815 46.7588ZM88.106 46.843C86.927 46.843 86.0193 46.464 85.3829 45.706C85.0367 45.2943 84.8636 44.7936 84.8636 44.2041C84.8636 43.4087 85.1443 42.7583 85.7058 42.253C86.2672 41.7383 86.9316 41.4389 87.699 41.3547C86.5199 41.0365 85.9304 40.358 85.9304 39.3193C85.9304 38.5146 86.2766 37.8782 86.9691 37.4103C87.6616 36.9331 88.4476 36.6945 89.3272 36.6945C90.2162 36.6945 90.9555 36.8769 91.545 37.2419C92.1346 37.6069 92.4294 38.0888 92.4294 38.6877C92.4294 39.0339 92.3358 39.3614 92.1486 39.6702L92.0504 39.8247C91.6667 39.8247 91.2549 39.7685 90.8151 39.6562C90.3753 39.5346 90.0431 39.3802 89.8185 39.193L89.9589 37.7613C89.8185 37.6958 89.6782 37.663 89.5378 37.663C89.2477 37.663 89.0231 37.8174 88.864 38.1262C88.7143 38.435 88.6394 38.7953 88.6394 39.207C88.6394 39.6188 88.6816 39.9463 88.7658 40.1896C88.8594 40.4329 88.9997 40.6201 89.1869 40.7511C89.3834 40.8727 89.5518 40.9616 89.6922 41.0178C89.8419 41.0646 90.0478 41.116 90.3098 41.1722L90.1975 41.9863C89.5518 41.9863 88.9576 42.1688 88.4149 42.5337C87.8721 42.8987 87.6007 43.39 87.6007 44.0076C87.6007 44.4474 87.7411 44.7702 88.0218 44.9761C88.3026 45.1726 88.6348 45.2709 89.0184 45.2709C89.4115 45.2709 89.8232 45.1726 90.2537 44.9761C90.6841 44.7796 91.0538 44.5316 91.3626 44.2322L91.9942 44.8638C91.5918 45.4159 91.035 45.8838 90.3238 46.2675C89.6127 46.6512 88.8734 46.843 88.106 46.843Z" fill="#FEFAE0"/>
</g>
<defs>
<filter id="filter0_di_126_136" x="9.74773" y="0.298218" width="56.9259" height="35.1698" filterUnits="userSpaceOnUse" color-interpolation-filters="sRGB">
<feFlood flood-opacity="0" result="BackgroundImageFix"/>
<feColorMatrix in="SourceAlpha" type="matrix" values="0 0 0 0 0 0 0 0 0 0 0 0 0 0 0 0 0 0 127 0" result="hardAlpha"/>
<feOffset dy="0.623853"/>
<feGaussianBlur stdDeviation="0.311927"/>
<feComposite in2="hardAlpha" operator="out"/>
<feColorMatrix type="matrix" values="0 0 0 0 0 0 0 0 0 0 0 0 0 0 0 0 0 0 0.25 0"/>
<feBlend mode="normal" in2="BackgroundImageFix" result="effect1_dropShadow_126_136"/>
<feBlend mode="normal" in="SourceGraphic" in2="effect1_dropShadow_126_136" result="shape"/>
<feColorMatrix in="SourceAlpha" type="matrix" values="0 0 0 0 0 0 0 0 0 0 0 0 0 0 0 0 0 0 127 0" result="hardAlpha"/>
<feOffset dy="0.623853"/>
<feGaussianBlur stdDeviation="0.311927"/>
<feComposite in2="hardAlpha" operator="arithmetic" k2="-1" k3="1"/>
<feColorMatrix type="matrix" values="0 0 0 0 0.3625 0 0 0 0 0.3625 0 0 0 0 0.3625 0 0 0 1 0"/>
<feBlend mode="normal" in2="shape" result="effect2_innerShadow_126_136"/>
</filter>
<filter id="filter1_d_126_136" x="45.8532" y="16.9082" width="30.257" height="1.40371" filterUnits="userSpaceOnUse" color-interpolation-filters="sRGB">
<feFlood flood-opacity="0" result="BackgroundImageFix"/>
<feColorMatrix in="SourceAlpha" type="matrix" values="0 0 0 0 0 0 0 0 0 0 0 0 0 0 0 0 0 0 127 0" result="hardAlpha"/>
<feOffset dy="0.623853"/>
<feGaussianBlur stdDeviation="0.311927"/>
<feComposite in2="hardAlpha" operator="out"/>
<feColorMatrix type="matrix" values="0 0 0 0 0 0 0 0 0 0 0 0 0 0 0 0 0 0 0.25 0"/>
<feBlend mode="normal" in2="BackgroundImageFix" result="effect1_dropShadow_126_136"/>
<feBlend mode="normal" in="SourceGraphic" in2="effect1_dropShadow_126_136" result="shape"/>
</filter>
<filter id="filter2_d_126_136" x="48.5046" y="15.9724" width="31.3485" height="1.40371" filterUnits="userSpaceOnUse" color-interpolation-filters="sRGB">
<feFlood flood-opacity="0" result="BackgroundImageFix"/>
<feColorMatrix in="SourceAlpha" type="matrix" values="0 0 0 0 0 0 0 0 0 0 0 0 0 0 0 0 0 0 127 0" result="hardAlpha"/>
<feOffset dy="0.623853"/>
<feGaussianBlur stdDeviation="0.311927"/>
<feComposite in2="hardAlpha" operator="out"/>
<feColorMatrix type="matrix" values="0 0 0 0 0 0 0 0 0 0 0 0 0 0 0 0 0 0 0.25 0"/>
<feBlend mode="normal" in2="BackgroundImageFix" result="effect1_dropShadow_126_136"/>
<feBlend mode="normal" in="SourceGraphic" in2="effect1_dropShadow_126_136" result="shape"/>
</filter>
<filter id="filter3_d_126_136" x="50.9999" y="15.0367" width="32.9084" height="1.40371" filterUnits="userSpaceOnUse" color-interpolation-filters="sRGB">
<feFlood flood-opacity="0" result="BackgroundImageFix"/>
<feColorMatrix in="SourceAlpha" type="matrix" values="0 0 0 0 0 0 0 0 0 0 0 0 0 0 0 0 0 0 127 0" result="hardAlpha"/>
<feOffset dy="0.623853"/>
<feGaussianBlur stdDeviation="0.311927"/>
<feComposite in2="hardAlpha" operator="out"/>
<feColorMatrix type="matrix" values="0 0 0 0 0 0 0 0 0 0 0 0 0 0 0 0 0 0 0.25 0"/>
<feBlend mode="normal" in2="BackgroundImageFix" result="effect1_dropShadow_126_136"/>
<feBlend mode="normal" in="SourceGraphic" in2="effect1_dropShadow_126_136" result="shape"/>
</filter>
<filter id="filter4_d_126_136" x="53.3395" y="14.101" width="35.2477" height="1.40371" filterUnits="userSpaceOnUse" color-interpolation-filters="sRGB">
<feFlood flood-opacity="0" result="BackgroundImageFix"/>
<feColorMatrix in="SourceAlpha" type="matrix" values="0 0 0 0 0 0 0 0 0 0 0 0 0 0 0 0 0 0 127 0" result="hardAlpha"/>
<feOffset dy="0.623853"/>
<feGaussianBlur stdDeviation="0.311927"/>
<feComposite in2="hardAlpha" operator="out"/>
<feColorMatrix type="matrix" values="0 0 0 0 0 0 0 0 0 0 0 0 0 0 0 0 0 0 0.25 0"/>
<feBlend mode="normal" in2="BackgroundImageFix" result="effect1_dropShadow_126_136"/>
<feBlend mode="normal" in="SourceGraphic" in2="effect1_dropShadow_126_136" result="shape"/>
</filter>
<filter id="filter5_d_126_136" x="55.6789" y="13.1652" width="37.7431" height="1.40371" filterUnits="userSpaceOnUse" color-interpolation-filters="sRGB">
<feFlood flood-opacity="0" result="BackgroundImageFix"/>
<feColorMatrix in="SourceAlpha" type="matrix" values="0 0 0 0 0 0 0 0 0 0 0 0 0 0 0 0 0 0 127 0" result="hardAlpha"/>
<feOffset dy="0.623853"/>
<feGaussianBlur stdDeviation="0.311927"/>
<feComposite in2="hardAlpha" operator="out"/>
<feColorMatrix type="matrix" values="0 0 0 0 0 0 0 0 0 0 0 0 0 0 0 0 0 0 0.25 0"/>
<feBlend mode="normal" in2="BackgroundImageFix" result="effect1_dropShadow_126_136"/>
<feBlend mode="normal" in="SourceGraphic" in2="effect1_dropShadow_126_136" result="shape"/>
</filter>
<filter id="filter6_d_126_136" x="59.11" y="12.2294" width="38.5229" height="1.40371" filterUnits="userSpaceOnUse" color-interpolation-filters="sRGB">
<feFlood flood-opacity="0" result="BackgroundImageFix"/>
<feColorMatrix in="SourceAlpha" type="matrix" values="0 0 0 0 0 0 0 0 0 0 0 0 0 0 0 0 0 0 127 0" result="hardAlpha"/>
<feOffset dy="0.623853"/>
<feGaussianBlur stdDeviation="0.311927"/>
<feComposite in2="hardAlpha" operator="out"/>
<feColorMatrix type="matrix" values="0 0 0 0 0 0 0 0 0 0 0 0 0 0 0 0 0 0 0.25 0"/>
<feBlend mode="normal" in2="BackgroundImageFix" result="effect1_dropShadow_126_136"/>
<feBlend mode="normal" in="SourceGraphic" in2="effect1_dropShadow_126_136" result="shape"/>
</filter>
<filter id="filter7_di_126_136" x="33.0763" y="13.1909" width="9.49673" height="9.80178" filterUnits="userSpaceOnUse" color-interpolation-filters="sRGB">
<feFlood flood-opacity="0" result="BackgroundImageFix"/>
<feColorMatrix in="SourceAlpha" type="matrix" values="0 0 0 0 0 0 0 0 0 0 0 0 0 0 0 0 0 0 127 0" result="hardAlpha"/>
<feOffset dy="0.623853"/>
<feGaussianBlur stdDeviation="0.311927"/>
<feComposite in2="hardAlpha" operator="out"/>
<feColorMatrix type="matrix" values="0 0 0 0 0 0 0 0 0 0 0 0 0 0 0 0 0 0 0.25 0"/>
<feBlend mode="normal" in2="BackgroundImageFix" result="effect1_dropShadow_126_136"/>
<feBlend mode="normal" in="SourceGraphic" in2="effect1_dropShadow_126_136" result="shape"/>
<feColorMatrix in="SourceAlpha" type="matrix" values="0 0 0 0 0 0 0 0 0 0 0 0 0 0 0 0 0 0 127 0" result="hardAlpha"/>
<feOffset dy="0.623853"/>
<feGaussianBlur stdDeviation="0.311927"/>
<feComposite in2="hardAlpha" operator="arithmetic" k2="-1" k3="1"/>
<feColorMatrix type="matrix" values="0 0 0 0 0 0 0 0 0 0 0 0 0 0 0 0 0 0 0.25 0"/>
<feBlend mode="normal" in2="shape" result="effect2_innerShadow_126_136"/>
</filter>
<filter id="filter8_di_126_136" x="10.2453" y="22.8137" width="24.2829" height="14.3579" filterUnits="userSpaceOnUse" color-interpolation-filters="sRGB">
<feFlood flood-opacity="0" result="BackgroundImageFix"/>
<feColorMatrix in="SourceAlpha" type="matrix" values="0 0 0 0 0 0 0 0 0 0 0 0 0 0 0 0 0 0 127 0" result="hardAlpha"/>
<feOffset dy="0.623853"/>
<feGaussianBlur stdDeviation="0.311927"/>
<feComposite in2="hardAlpha" operator="out"/>
<feColorMatrix type="matrix" values="0 0 0 0 0 0 0 0 0 0 0 0 0 0 0 0 0 0 0.25 0"/>
<feBlend mode="normal" in2="BackgroundImageFix" result="effect1_dropShadow_126_136"/>
<feBlend mode="normal" in="SourceGraphic" in2="effect1_dropShadow_126_136" result="shape"/>
<feColorMatrix in="SourceAlpha" type="matrix" values="0 0 0 0 0 0 0 0 0 0 0 0 0 0 0 0 0 0 127 0" result="hardAlpha"/>
<feOffset dy="0.623853"/>
<feGaussianBlur stdDeviation="0.311927"/>
<feComposite in2="hardAlpha" operator="arithmetic" k2="-1" k3="1"/>
<feColorMatrix type="matrix" values="0 0 0 0 0 0 0 0 0 0 0 0 0 0 0 0 0 0 0.25 0"/>
<feBlend mode="normal" in2="shape" result="effect2_innerShadow_126_136"/>
</filter>
<filter id="filter9_di_126_136" x="0.0499749" y="36.6945" width="93.0033" height="14.3579" filterUnits="userSpaceOnUse" color-interpolation-filters="sRGB">
<feFlood flood-opacity="0" result="BackgroundImageFix"/>
<feColorMatrix in="SourceAlpha" type="matrix" values="0 0 0 0 0 0 0 0 0 0 0 0 0 0 0 0 0 0 127 0" result="hardAlpha"/>
<feOffset dy="0.623853"/>
<feGaussianBlur stdDeviation="0.311927"/>
<feComposite in2="hardAlpha" operator="out"/>
<feColorMatrix type="matrix" values="0 0 0 0 0 0 0 0 0 0 0 0 0 0 0 0 0 0 0.25 0"/>
<feBlend mode="normal" in2="BackgroundImageFix" result="effect1_dropShadow_126_136"/>
<feBlend mode="normal" in="SourceGraphic" in2="effect1_dropShadow_126_136" result="shape"/>
<feColorMatrix in="SourceAlpha" type="matrix" values="0 0 0 0 0 0 0 0 0 0 0 0 0 0 0 0 0 0 127 0" result="hardAlpha"/>
<feOffset dy="0.623853"/>
<feGaussianBlur stdDeviation="0.311927"/>
<feComposite in2="hardAlpha" operator="arithmetic" k2="-1" k3="1"/>
<feColorMatrix type="matrix" values="0 0 0 0 0 0 0 0 0 0 0 0 0 0 0 0 0 0 0.25 0"/>
<feBlend mode="normal" in2="shape" result="effect2_innerShadow_126_136"/>
</filter>
</defs>
</svg>
